PathFileType	3	(X/Y/Z)	D:\ViconData\Biomechanics course\HT2024\Leo31oct\Walk_Norm15.trc
DataRate	CameraRate	NumFrames	NumMarkers	Units	OrigDataRate	OrigDataStartFrame	OrigNumFrames
100.0	100.0	4	53	mm	100.0	107	210	
Frame#	Time	LFHD			RFHD			LBHD			RBHD			C7			T10			CLAV			STRN			RBAK			LSHO			LUPA			LELB			LFRM			LWRA			LWRB			LFIN			RSHO			RUPA			RELB			RFRM			RWRA			RWRB			RFIN			LASI			RASI			LPSI			RPSI			LTHI			LTHAP			LTHAD			LKNE			LKNM			LTIB			LTIAP			LTIAD			LANK			LMED			LHEE			LTOE			RTHI			RTHAP			RTHAD			RKNE			RKNM			RTIB			RTIAP			RTIAD			RANK			RMED			RHEE			RTOE			LPel			RPel			
		X1	Y1	Z1	X2	Y2	Z2	X3	Y3	Z3	X4	Y4	Z4	X5	Y5	Z5	X6	Y6	Z6	X7	Y7	Z7	X8	Y8	Z8	X9	Y9	Z9	X10	Y10	Z10	X11	Y11	Z11	X12	Y12	Z12	X13	Y13	Z13	X14	Y14	Z14	X15	Y15	Z15	X16	Y16	Z16	X17	Y17	Z17	X18	Y18	Z18	X19	Y19	Z19	X20	Y20	Z20	X21	Y21	Z21	X22	Y22	Z22	X23	Y23	Z23	X24	Y24	Z24	X25	Y25	Z25	X26	Y26	Z26	X27	Y27	Z27	X28	Y28	Z28	X29	Y29	Z29	X30	Y30	Z30	X31	Y31	Z31	X32	Y32	Z32	X33	Y33	Z33	X34	Y34	Z34	X35	Y35	Z35	X36	Y36	Z36	X37	Y37	Z37	X38	Y38	Z38	X39	Y39	Z39	X40	Y40	Z40	X41	Y41	Z41	X42	Y42	Z42	X43	Y43	Z43	X44	Y44	Z44	X45	Y45	Z45	X46	Y46	Z46	X47	Y47	Z47	X48	Y48	Z48	X49	Y49	Z49	X50	Y50	Z50	X51	Y51	Z51	X52	Y52	Z52	X53	Y53	Z53	
107	1.06	146.26505	1681.9095	1020.65	262.60278	1685.3522	1024.458				268.98816	1687.3726	879.52313	202.2748	1547.6454	1090.3163	207.14839	1315.7556	1171.7015	212.1624	1466.47	969.69196	218.61246	1273.7938	932.22479	286.28479	1440.7473	1157.6195	46.344547	1500.2822	1013.3318	-52.388294	1223.4926	970.64227	-62.323681	1146.5204	949.73254	-55.213131	1043.1438	878.64606	15.788123	952.37744	765.21295	-21.300505	914.15192	809.84741	-6.5971708	879.61371	708.05402	366.82468	1498.9929	1035.1305	460.1868	1242.1224	1107.3342	473.55255	1161.877	1131.4612	484.87363	1024.7917	1091.6086	454.46451	876.04364	1107.4478	436.64951	870.75146	1038.3402	468.8158	787.56458	1038.6067	91.914581	1038.021	976.61572	332.65677	1037.2529	975.0155	172.52866	1062.7292	1165.9929	256.70938	1059.8606	1165.6403	64.565125	648.21356	1089.2246	133.00233	699.1272	977.56299	138.978	584.66742	1009.6779	78.755745	506.60812	1111.4091				105.38281	242.44199	1179.7711	127.42701	398.26035	1083.9393	151.07571	186.03729	1147.9982	143.48424	84.452682	1208.0553				183.1804	65.466568	1275.8887	173.20554	50.089611	1118.715	372.88693	632.70734	901.17444	303.68567	751.41699	846.73456	305.63116	671.05493	815.18683	357.82666	533.97845	873.26776				345.82095	256.45245	913.20831	324.15634	457.3739	818.22821	314.44492	252.97006	854.21466	320.98846	117.14142	919.55743				265.12415	80.660164	964.64447	319.79544	67.949501	815.51562	55.669353	1065.6205	1064.5454	361.67325	1060.4642	1106.1892
108	1.07	146.74376	1680.4772	1008.2062	263.09064	1683.8054	1011.9006				269.31369	1686.1084	866.95282	202.85114	1546.2246	1077.59	207.86249	1314.3474	1159.3762	212.41606	1465.0416	956.91382	218.6113	1272.2932	919.75885	286.88498	1439.2268	1144.6595	46.80312	1498.9862	1000.8958	-51.855728	1223.1007	954.80988	-61.758923	1146.4888	932.27655	-53.805996	1045.1281	858.2569	17.843683	958.52759	742.05908	-18.679464	918.59814	785.61212	-4.0988784	887.54803	682.70117	367.28244	1497.3702	1022.0467	460.28653	1240.686	1095.0765	473.53119	1160.5083	1119.5543	484.69849	1023.2744	1080.2552	453.99417	874.65698	1096.6455	436.32584	869.15155	1027.4518	468.48178	785.91241	1028.1075	91.460274	1036.8781	964.77277	332.22891	1035.8096	960.95428	173.98892	1061.2817	1153.403	258.1351	1058.274	1152.2825	64.096558	648.08875	1083.0515	132.48309	697.60272	969.59021	138.43028	583.15295	1003.4963	78.4608	506.70035	1107.2294				105.34129	243.1015	1178.228	127.05251	398.02185	1080.8026	150.89827	186.42648	1146.5739	143.65237	85.214142	1207.7252				183.49683	66.747948	1275.5999	173.21155	50.270229	1118.5605	373.13699	630.77435	887.98254	303.07437	749.17651	834.06329	305.26135	669.15179	802.7392	358.57413	532.13611	858.12286				347.46722	252.19893	881.44849	323.95108	458.10318	799.83691	314.95551	252.21606	823.203	322.80386	112.67746	879.46051				267.97089	73.460388	923.30371	319.63303	69.795769	772.67639	56.151237	1064.4949	1053.1792	362.5278	1058.7776	1091.9548
109	1.08	147.27002	1678.8732	995.67395	263.62668	1682.1003	999.2345				269.66132	1684.6638	854.27222	203.48927	1544.6387	1064.7708	208.64836	1312.7681	1146.951	212.71246	1463.4348	944.03998	218.62825	1270.6105	907.17761	287.55829	1437.537	1131.5981	47.309433	1497.5028	988.37897	-51.25436	1222.5197	939.11737	-61.127323	1146.2742	915.04846	-52.324158	1046.9681	838.21588	19.979813	964.53918	719.46582	-15.973832	922.96918	761.89099	-1.4943798	895.34845	658.02972	367.79053	1495.5638	1008.8488	460.44391	1239.0258	1082.576	473.56949	1158.9086	1107.3777	484.56543	1021.5386	1068.6418	453.59424	873.05737	1085.6173	436.01761	867.31708	1016.3529	468.14017	784.01117	1017.3937	91.063713	1035.5833	952.80255	331.85394	1034.1689	946.79205	175.46858	1059.6523	1140.6785	259.57693	1056.504	1138.8042	63.638569	647.92261	1076.6796	131.93478	696.02545	961.54358	137.86082	581.61182	997.09192	78.221268	506.77853	1102.7786				105.33965	243.80321	1176.5309	126.73373	397.75174	1077.4335	150.74698	186.84489	1145.0234	143.84271	86.050278	1207.3501				183.83759	68.146477	1275.272	173.22499	50.473961	1118.4016	373.52063	628.43695	875.15533	302.53656	746.33185	821.72522	305.09152	666.60553	790.823	359.42041	529.9989	843.2265				349.11911	248.69188	850.04834	323.72009	458.6246	781.8916	315.31943	252.02335	792.90961	324.49075	109.39531	840.02264				270.80737	67.613678	882.65802	318.92398	72.710739	730.92548	56.686108	1063.2097	1041.663	363.40601	1056.8888	1077.6196
110	1.09	147.85181	1677.118	983.04364	264.21887	1680.256	986.45154				270.04092	1683.0597	841.47357	204.19286	1542.9052	1051.8488	209.50311	1311.0343	1134.4056	213.0589	1461.6708	931.05994	218.67079	1268.7692	894.46289	288.30386	1435.6934	1118.4265	47.869171	1495.8544	975.76776	-50.585281	1221.7583	923.56549	-60.432003	1145.8801	898.05579	-50.772373	1048.6512	818.53925	22.192106	970.37714	697.45392	-13.192689	927.23523	738.71228	1.2060279	902.97198	634.05939	368.35416	1493.5924	995.53302	460.66278	1237.1591	1069.8312	473.67059	1157.095	1094.9279	484.47739	1019.5999	1056.762	453.26794	871.25995	1074.356	435.72766	865.26459	1005.038	467.79303	781.88007	1006.4585	90.723801	1034.144	940.68616	331.5325	1032.3586	932.52148	176.96283	1057.8589	1127.8043	261.03101	1054.574	1125.1954	63.206703	647.71564	1070.0603	131.38194	694.40137	953.39612	137.29295	580.05609	990.45178	78.037094	506.83768	1098.0167				105.37167	244.54962	1174.6487	126.47213	397.44348	1073.806	150.62144	187.29021	1143.34	144.04308	86.972214	1206.9142				184.18279	69.681313	1274.8951	173.24306	50.706463	1118.2285	374.0347	625.80103	862.54413	302.03021	743.0014	809.62756	305.06525	663.53638	779.31726	360.34122	527.64148	828.49707				350.71115	245.92984	819.21411	323.46573	458.95847	764.33875	315.51877	252.33766	763.4798	325.97116	107.23532	801.56561				273.50146	63.069923	843.0274	317.71069	76.544815	690.56696	57.271435	1061.7728	1029.9756	364.30734	1054.8307	1063.1737
